<svg width="256" height="256" viewBox="0 0 256 256" fill="none" xmlns="http://www.w3.org/2000/svg">
  <rect width="256" height="256" rx="48" fill="white"/>
  <path d="M74 90C82.8 90 90 97.2 90 106C90 114.8 82.8 122 74 122C65.2 122 58 114.8 58 106C58 97.2 65.2 90 74 90Z" fill="#111111"/>
  <path d="M182 90C190.8 90 198 97.2 198 106C198 114.8 190.8 122 182 122C173.2 122 166 114.8 166 106C166 97.2 173.2 90 182 90Z" fill="#111111"/>
  <path d="M128 34C136.8 34 144 41.2 144 50C144 58.8 136.8 66 128 66C119.2 66 112 58.8 112 50C112 41.2 119.2 34 128 34Z" fill="#111111"/>
  <path d="M92 160C100.8 160 108 167.2 108 176C108 184.8 100.8 192 92 192C83.2 192 76 184.8 76 176C76 167.2 83.2 160 92 160Z" fill="#111111"/>
  <path d="M164 160C172.8 160 180 167.2 180 176C180 184.8 172.8 192 164 192C155.2 192 148 184.8 148 176C148 167.2 155.2 160 164 160Z" fill="#111111"/>
  <path d="M128 194C136.8 194 144 201.2 144 210C144 218.8 136.8 226 128 226C119.2 226 112 218.8 112 210C112 201.2 119.2 194 128 194Z" fill="#111111"/>
  <path d="M90 106C101.333 106 111.5 109.833 120.5 117.5C126.167 122.333 131.167 127.5 135.5 133C145.167 120.667 156 111.667 168 106" stroke="#111111" stroke-width="10" stroke-linecap="round" stroke-linejoin="round"/>
  <path d="M128 50C131.333 74.667 144.667 93.333 168 106" stroke="#111111" stroke-width="10" stroke-linecap="round" stroke-linejoin="round"/>
  <path d="M136 132C120.667 146.667 112.667 161.333 112 176C123.333 183.333 128.667 194.667 128 210" stroke="#111111" stroke-width="10" stroke-linecap="round" stroke-linejoin="round"/>
  <path d="M136 132C151.333 145.333 160.667 160 164 176" stroke="#111111" stroke-width="10" stroke-linecap="round" stroke-linejoin="round"/>
  <path d="M136 132C126.667 144 112 153.333 92 160" stroke="#111111" stroke-width="10" stroke-linecap="round" stroke-linejoin="round"/>
  <path d="M92 86L104 70" stroke="#A3A3A3" stroke-width="7" stroke-linecap="round"/>
  <path d="M164 70L176 86" stroke="#A3A3A3" stroke-width="7" stroke-linecap="round"/>
  <path d="M114 62L104 70" stroke="#A3A3A3" stroke-width="7" stroke-linecap="round"/>
  <path d="M142 62L152 70" stroke="#A3A3A3" stroke-width="7" stroke-linecap="round"/>
  <path d="M92 150L74 136" stroke="#A3A3A3" stroke-width="7" stroke-linecap="round"/>
  <path d="M164 150L182 136" stroke="#A3A3A3" stroke-width="7" stroke-linecap="round"/>
  <path d="M164 176L144 182" stroke="#A3A3A3" stroke-width="7" stroke-linecap="round"/>
  <path d="M112 176L92 168" stroke="#A3A3A3" stroke-width="7" stroke-linecap="round"/>
  <circle cx="104" cy="70" r="7" fill="#A3A3A3"/>
  <circle cx="152" cy="70" r="7" fill="#A3A3A3"/>
  <circle cx="74" cy="136" r="7" fill="#A3A3A3"/>
  <circle cx="182" cy="136" r="7" fill="#A3A3A3"/>
  <circle cx="144" cy="182" r="7" fill="#A3A3A3"/>
  <circle cx="92" cy="168" r="7" fill="#A3A3A3"/>
</svg>
